<?xml version="1.0" encoding="utf-8"?>
<!-- Generator: Adobe Illustrator 28.0.0, SVG Export Plug-In . SVG Version: 6.00 Build 0)  -->
<svg version="1.1" id="Capa_1" xmlns="http://www.w3.org/2000/svg" xmlns:xlink="http://www.w3.org/1999/xlink" x="0px" y="0px"
	 viewBox="0 0 70.7 70.7" style="enable-background:new 0 0 70.7 70.7;" xml:space="preserve">
<style type="text/css">
	.st0{fill:#008989;}
	.st1{fill:#333333;}
	.st2{fill:#C3F25C;}
	.st3{fill:none;stroke:#C3F25C;stroke-width:2;stroke-miterlimit:10;}
	.st4{fill:#6A66F2;}
	.st5{fill:#E9FFAE;}
	.st6{fill:#F2E96B;}
	.st7{fill:none;stroke:#F2E96B;stroke-width:2;stroke-miterlimit:10;}
	.st8{fill:#FFFFFF;}
	.st9{fill:#D3F46C;}
	.st10{fill:#FFFFFF;stroke:#6A66F2;stroke-linecap:round;stroke-linejoin:round;}
	.st11{fill:#6A66F2;stroke:#6A66F2;stroke-linecap:round;stroke-linejoin:round;}
	.st12{fill:none;stroke:#6A66F2;stroke-linecap:round;stroke-linejoin:round;}
	.st13{fill:#C3F25C;stroke:#6A66F2;stroke-linecap:round;stroke-linejoin:round;}
	.st14{fill:none;}
</style>
<g>
	<circle class="st0" cx="35.3" cy="35.3" r="35.3"/>
</g>
<g>
	<path class="st1" d="M54.6,48.4c-3.2-3.3-6.4-6.5-9.6-9.7c-0.7-0.7-1.5-0.9-2.5-0.7c-0.4,0.1-0.9,0-1.1-0.3c-1.6-1.5-3-3-4.6-4.5
		c-0.8-0.8-1.7-1.5-2.7-2.4c0.4-0.4,0.8-0.8,1.2-1.1c-0.8-0.2-1.6-0.4-2.4-0.7c-2.1,2.1-4.2,4.2-6.3,6.3c0.5,0.6,0.9,1.2,1.3,1.9
		c0.4-0.4,0.7-0.7,1.1-1.1c2.5,2.5,4.9,4.9,7.3,7.3c0.1,0.1,0.1,0.5,0.1,0.7c-0.4,1-0.2,1.9,0.5,2.6c3.2,3.3,6.5,6.6,9.8,9.8
		c1.8,1.8,4.4,1.7,6.3-0.1c0.6-0.6,1.2-1.1,1.8-1.7C56.3,53,56.3,50.3,54.6,48.4z M30.5,34.7c0.7-0.7,1.5-1.4,2.2-2.1
		c2.4,2.4,4.9,4.9,7.4,7.4c-0.7,0.7-1.4,1.5-2.1,2.2C35.5,39.7,33.1,37.2,30.5,34.7z M50.5,55.6c-1.3,0.7-2.3-0.2-3.2-1.1
		c-3.1-3.1-6.1-6.1-9.2-9.1c1.8-1.7,3.5-3.4,5.2-5.1c3.1,3.1,6.4,6.4,9.7,9.7c0.4,0.4,0.7,1.2,0.7,1.7C53.5,53.7,52,54.7,50.5,55.6z
		"/>
	<path class="st8" d="M43.4,40.3c3.1,3.1,6.4,6.4,9.7,9.7c0.4,0.4,0.7,1.2,0.7,1.7c-0.2,1.9-1.7,3-3.2,3.8c-1.3,0.7-2.3-0.2-3.2-1.1
		c-3.1-3.1-6.1-6.1-9.2-9.1C39.9,43.7,41.6,42,43.4,40.3z"/>
	<path class="st8" d="M40.1,40c-0.7,0.7-1.4,1.5-2.1,2.2c-2.5-2.5-5-5-7.5-7.5c0.7-0.7,1.5-1.4,2.2-2.1C35.2,35,37.6,37.5,40.1,40z"
		/>
</g>
<g>
	<path class="st8" d="M26.6,42.4c-7.6,0-13.8-6.2-13.8-13.8S19,14.8,26.6,14.8c7.6,0,13.8,6.2,13.8,13.8S34.2,42.4,26.6,42.4z"/>
	<path class="st1" d="M26.6,15.8c7,0,12.8,5.7,12.8,12.8c0,7-5.7,12.8-12.8,12.8s-12.8-5.7-12.8-12.8C13.8,21.6,19.5,15.8,26.6,15.8
		 M26.6,13.8c-8.2,0-14.8,6.6-14.8,14.8s6.6,14.8,14.8,14.8c8.2,0,14.8-6.6,14.8-14.8S34.8,13.8,26.6,13.8L26.6,13.8z"/>
</g>
<g>
	<circle class="st8" cx="26.6" cy="28.6" r="7.9"/>
	<path class="st1" d="M26.6,21.7c3.8,0,6.9,3.1,6.9,6.9s-3.1,6.9-6.9,6.9c-3.8,0-6.9-3.1-6.9-6.9S22.8,21.7,26.6,21.7 M26.6,19.7
		c-4.9,0-8.9,4-8.9,8.9s4,8.9,8.9,8.9c4.9,0,8.9-4,8.9-8.9S31.5,19.7,26.6,19.7L26.6,19.7z"/>
</g>
</svg>
