<?xml version="1.0" encoding="utf-8"?>
<!-- Generator: Adobe Illustrator 28.0.0, SVG Export Plug-In . SVG Version: 6.00 Build 0)  -->
<svg version="1.1" id="Capa_1" xmlns="http://www.w3.org/2000/svg" xmlns:xlink="http://www.w3.org/1999/xlink" x="0px" y="0px"
	 viewBox="0 0 420.11 420.11" style="enable-background:new 0 0 420.11 420.11;" xml:space="preserve">
<style type="text/css">
	.st0{fill:#F2E96B;}
	.st1{fill:#333333;}
	.st2{fill:#C3F25C;}
	.st3{fill:none;stroke:#C3F25C;stroke-width:2;stroke-miterlimit:10;}
	.st4{fill:#6A66F2;}
	.st5{fill:#008989;}
	.st6{fill:none;stroke:#F2E96B;stroke-width:2;stroke-miterlimit:10;}
	.st7{fill:#FFFFFF;}
	.st8{fill:#D3F46C;}
	.st9{fill:#FFFFFF;stroke:#6A66F2;stroke-linecap:round;stroke-linejoin:round;}
	.st10{fill:#6A66F2;stroke:#6A66F2;stroke-linecap:round;stroke-linejoin:round;}
	.st11{fill:none;stroke:#6A66F2;stroke-linecap:round;stroke-linejoin:round;}
	.st12{fill:#C3F25C;stroke:#6A66F2;stroke-linecap:round;stroke-linejoin:round;}
</style>
<g>
	<polygon class="st8" points="111.57,416.44 111.57,308.55 3.68,308.55 3.68,111.56 111.57,111.56 111.57,3.68 308.54,3.68 
		308.54,111.56 416.43,111.56 416.43,308.55 308.54,308.55 308.54,416.44 	"/>
</g>
<g id="freepik--Hands--inject-310">
	<path class="st9" d="M96.76,358.03c0,0,22.29-34.17,26.37-47.9s0.87-33.26-0.37-45.63s4.86-43.65,4.86-43.65s-5.56-21.64-2.47-23.5
		s14-2.59,18.42-4.08s7.05-1.11,11,0.87c2.02,0.94,3.93,2.1,5.69,3.46l-2.72,4.2l-10.39,2.23l6.68,34.87c0,0,20.28,5.2,21.27,6.93
		s0.12,9-2,15.08s-1.11,10.27-4.82,11.5s-5.94,2-6.31,0.87s-5.07,18.18-8.41,24.24c-2.3,4.44-4.2,9.07-5.68,13.85
		c0,0-5.73,56.67-4.87,58"/>
	<path class="st10" d="M146.78,209.52c0,0-9-2.85-10.3-4.1c0.11,2.34,0.87,4.59,2.18,6.53c2.18,3.18,1.84,9.71,1.84,9.71l12.9,24.45
		l7.84,28.75c0.39-1.18,0.65-1.81,0.72-1.58c0.37,1.11,2.6,0.37,6.31-0.87s2.72-5.44,4.82-11.5c1.03-3.03,1.76-6.16,2.17-9.33v-5.26
		c-0.05-0.17-0.11-0.33-0.19-0.49c-1-1.73-21.27-6.93-21.27-6.93l-5.18-27.21L146.78,209.52z"/>
	<line class="st11" x1="160.78" y1="258.99" x2="164.58" y2="251.1"/>
	<path class="st11" d="M133.13,203.31c2.72,2.27,5.81,4.06,9.14,5.28"/>
	<path class="st9" d="M344.11,328.1c0,0-40.41-36-41.17-37.45s-18.82-47.11-21.95-54.82s-8.48-9.33-11-12.71s-8-18-9.41-24.83
		s0.09-12.46-13-12.63c-13.09-0.17-6.78-1.69-11.36-1s-6.44,5.26-6.44,5.26l12.87-1.6l2.47,1c2.47,1,2.63,4.5,2.63,4.5
		s2.29,23.81,2.71,28.47s3.16,24.74,3.16,24.74s-16.29-5.69-17.65-6.37s-5.93,5.08-7.37,10.08s2.37,8,5.93,12.71
		s9.83,4.92,9.83,4.92l27.26,29.06l32.54,61.81"/>
	<path class="st10" d="M253.22,226.51c-1.48-3.5-2.61-7.14-3.36-10.87c0.28,3,0.51,5.44,0.62,6.63c0.39,4.24,2.69,21.28,3.1,24.3
		c0.86-0.53,1.57-0.88,1.57-0.88c0.91-2.08,1.4-4.33,1.42-6.61C256.62,235.14,255.82,231.79,253.22,226.51z"/>
	<path class="st10" d="M252.55,264.7c0.34-1.51-1.93-13.31-2.18-14.91c-0.14-0.89,1.39-2.07,2.75-2.94
		c-2.77-1-15.92-5.59-17.13-6.19s-5.93,5.08-7.37,10.08s2.37,8,5.93,12.71s9.83,4.92,9.83,4.92l1.22,1.3
		C249.22,267.45,252.41,265.34,252.55,264.7z"/>
	<path class="st12" d="M247.34,192.02l5.28,46.79c0.26,2.31-1.41,4.4-3.72,4.66l-96.8,10.89c-2.32,0.26-4.4-1.41-4.67-3.72
		l-5.26-46.79c-0.26-2.32,1.4-4.41,3.72-4.67c0,0,0.01,0,0.01,0l96.79-10.88C245,188.05,247.08,189.71,247.34,192.02z"/>
	
		<rect x="158.51" y="208.79" transform="matrix(0.9937 -0.1118 0.1118 0.9937 -22.9577 19.683)" class="st10" width="10.99" height="11.45"/>
	
		<rect x="161.01" y="231.08" transform="matrix(0.9937 -0.1118 0.1118 0.9937 -25.4343 20.1031)" class="st10" width="10.99" height="11.45"/>
	
		<rect x="148.38" y="221.43" transform="matrix(0.9937 -0.1118 0.1118 0.9937 -24.4071 18.6548)" class="st10" width="11.45" height="10.99"/>
	
		<rect x="170.67" y="218.91" transform="matrix(0.9937 -0.1118 0.1118 0.9937 -23.9859 21.1314)" class="st10" width="11.45" height="10.99"/>
	<path class="st10" d="M225.14,229.67c-0.46-4.12-4.17-7.08-8.29-6.62c-4.12,0.46-7.08,4.17-6.62,8.29
		c0.46,4.12,4.17,7.08,8.29,6.62c0,0,0,0,0.01,0C222.64,237.49,225.6,233.78,225.14,229.67z"/>
	<path class="st10" d="M244.43,199.72c-0.47-4.12-4.18-7.07-8.3-6.61c-4.12,0.47-7.07,4.18-6.61,8.3c0.47,4.11,4.17,7.07,8.28,6.61
		C241.93,207.55,244.89,203.84,244.43,199.72z"/>
	<path class="st10" d="M234.77,214.56c-0.47-4.12-4.18-7.07-8.3-6.61c-4.12,0.47-7.07,4.18-6.61,8.3c0.47,4.11,4.17,7.07,8.28,6.61
		c4.12-0.46,7.08-4.17,6.62-8.29C234.77,214.57,234.77,214.56,234.77,214.56z"/>
	
		<rect x="192.16" y="221.16" transform="matrix(0.9937 -0.1118 0.1118 0.9937 -23.7592 23.5026)" class="st10" width="10.99" height="4.82"/>
	<path class="st9" d="M170.4,196.42c4.28,5.68,14.1,9,25,7.73s19.79-6.61,22.71-13.09L170.4,196.42z M199.48,240.1
		c-10,1.12-18.16,5.67-21.75,11.37l45.51-5.11C218.46,241.59,209.44,238.98,199.48,240.1z"/>
	<path class="st9" d="M143.75,255.02c0,0-2.72-16.69-4.2-21.12s-3.63-8.06-2.84-10.22s13.51-6,13.51-6s11.18-9,12.66-7.44
		s2.55,6.53,2.5,8.63s-2.44,5.16-5,6.58c-2.85,1.85-5.6,3.85-8.23,6c0,0,3,14.7,6.81,23.84s5.28,26.62,4.15,32.87
		s-19.36,23.67-19.36,23.67"/>
	<path class="st9" d="M261.5,250.24c0,0-17.37-16.71-20.34-21.37s-4.66-2.33-7.28-3.43s-13.1-2.57-17.51-4.78s-8.39,4.25-5.1,8.13
		c3.17,3.61,7.08,6.49,11.47,8.45c4.18,1.92,8.21,4.15,12.07,6.65c0,0,5.16,14.66,9.57,24.49s12.71,24.57,19.32,26.6
		c3.89,1.21,7.88,2.06,11.92,2.54"/>
	<path class="st11" d="M236.55,226.77c0,0-3.34,2.51-4.52,5.69"/>
</g>
</svg>
