<?xml version="1.0" encoding="utf-8"?>
<!-- Generator: Adobe Illustrator 28.0.0, SVG Export Plug-In . SVG Version: 6.00 Build 0)  -->
<svg version="1.1" id="Capa_1" xmlns="http://www.w3.org/2000/svg" xmlns:xlink="http://www.w3.org/1999/xlink" x="0px" y="0px"
	 viewBox="0 0 70.68 70.68" style="enable-background:new 0 0 70.68 70.68;" xml:space="preserve">
<style type="text/css">
	.st0{fill:#6A66F2;}
	.st1{fill:#333333;}
	.st2{fill:#C3F25C;}
	.st3{fill:none;stroke:#C3F25C;stroke-width:2;stroke-miterlimit:10;}
	.st4{fill:#008989;}
	.st5{fill:#F2E96B;}
	.st6{fill:none;stroke:#F2E96B;stroke-width:2;stroke-miterlimit:10;}
	.st7{fill:#FFFFFF;}
	.st8{fill:#D3F46C;}
	.st9{fill:#FFFFFF;stroke:#6A66F2;stroke-linecap:round;stroke-linejoin:round;}
	.st10{fill:#6A66F2;stroke:#6A66F2;stroke-linecap:round;stroke-linejoin:round;}
	.st11{fill:none;stroke:#6A66F2;stroke-linecap:round;stroke-linejoin:round;}
	.st12{fill:#C3F25C;stroke:#6A66F2;stroke-linecap:round;stroke-linejoin:round;}
</style>
<circle class="st0" cx="35.34" cy="35.34" r="35.34"/>
<g>
	<path class="st1" d="M28.83,36.25c-0.92,0.95-1.78,1.76-2.55,2.66c-0.21,0.25-0.29,0.75-0.21,1.09c0.31,1.26,0.11,2.33-0.85,3.24
		c-0.6,0.57-1.14,1.19-1.76,1.74c-1.11,1.01-2.73,1.08-3.81,0.04c-2.72-2.65-5.4-5.33-8.05-8.06c-1.12-1.16-1.04-2.67,0.05-3.87
		c0.5-0.56,1.07-1.05,1.58-1.61c0.98-1.08,2.13-1.34,3.51-0.9c0.25,0.08,0.7-0.02,0.88-0.21c3.61-3.58,7.2-7.18,10.77-10.8
		c0.19-0.19,0.26-0.64,0.18-0.91c-0.39-1.33-0.19-2.46,0.87-3.42c0.58-0.53,1.09-1.14,1.68-1.66c1.13-1.02,2.73-1.1,3.8-0.05
		c2.74,2.67,5.45,5.39,8.11,8.14c1,1.03,0.98,2.54,0.04,3.63c-0.7,0.81-1.47,1.57-2.27,2.28c-0.78,0.68-1.75,0.85-2.72,0.45
		c-0.56-0.23-0.89-0.11-1.3,0.31c-0.8,0.82-1.67,1.56-2.81,2.61c1.04,0.9,1.93,1.61,2.74,2.4c1.54,1.49,3.02,3.05,4.58,4.53
		c0.25,0.24,0.79,0.34,1.15,0.27c0.96-0.19,1.78-0.03,2.47,0.67c3.21,3.22,6.45,6.41,9.63,9.67c1.77,1.82,1.75,4.56,0.06,6.42
		c-0.55,0.61-1.14,1.19-1.75,1.74c-1.87,1.72-4.51,1.81-6.32,0.06c-3.32-3.21-6.55-6.51-9.8-9.8c-0.71-0.71-0.93-1.58-0.55-2.57
		c0.08-0.21,0.08-0.59-0.05-0.73C33.76,41.15,31.35,38.76,28.83,36.25z M18.86,32.24c1.86,1.86,3.67,3.68,5.38,5.39
		c3.83-3.8,7.68-7.62,11.53-11.44c-1.81-1.79-3.63-3.6-5.41-5.36C26.53,24.62,22.68,28.44,18.86,32.24z M43.38,40.33
		c-1.74,1.7-3.44,3.37-5.22,5.1c3.02,2.99,6.1,6.02,9.16,9.08c0.91,0.91,1.91,1.75,3.19,1.06c1.54-0.83,3.01-1.91,3.23-3.85
		c0.06-0.55-0.26-1.32-0.66-1.73C49.82,46.68,46.5,43.42,43.38,40.33z M41.76,23.52c-0.31-0.41-0.51-0.74-0.77-1.01
		c-1.98-2.01-3.97-4.01-5.97-6c-2.17-2.16-1.67-2.16-3.9-0.01c-0.73,0.7-0.76,1.23-0.02,1.95c2.13,2.07,4.2,4.19,6.29,6.29
		c1.65,1.65,1.65,1.66,3.28,0.01C41.03,24.38,41.36,23.98,41.76,23.52z M15.63,32.36c-0.29,0.18-0.55,0.29-0.75,0.47
		c-0.42,0.38-0.82,0.8-1.22,1.21c-0.93,0.94-0.94,1.07-0.02,1.99c1.96,1.98,3.94,3.95,5.9,5.93c2.25,2.28,1.77,2.14,4.06-0.07
		c0.62-0.6,0.65-1.08,0.02-1.7c-2.42-2.38-4.8-4.81-7.2-7.21C16.2,32.75,15.93,32.59,15.63,32.36z M40.14,39.98
		c-2.5-2.51-4.97-4.98-7.37-7.39c-0.74,0.7-1.54,1.44-2.23,2.09c2.51,2.52,4.98,5,7.47,7.5C38.72,41.45,39.46,40.68,40.14,39.98z"/>
	<path class="st7" d="M18.86,32.24c3.83-3.8,7.68-7.62,11.5-11.41c1.78,1.76,3.6,3.57,5.41,5.36c-3.85,3.82-7.7,7.64-11.53,11.44
		C22.52,35.92,20.71,34.1,18.86,32.24z"/>
	<path class="st7" d="M43.38,40.33c3.12,3.1,6.44,6.35,9.69,9.67c0.41,0.41,0.72,1.18,0.66,1.73c-0.22,1.93-1.7,3.02-3.23,3.85
		c-1.28,0.69-2.28-0.15-3.19-1.06c-3.06-3.06-6.14-6.09-9.16-9.08C39.94,43.69,41.64,42.03,43.38,40.33z"/>
	<path class="st7" d="M41.76,23.52c-0.4,0.45-0.72,0.86-1.09,1.22c-1.63,1.65-1.63,1.65-3.28-0.01c-2.09-2.1-4.17-4.22-6.29-6.29
		c-0.74-0.72-0.71-1.25,0.02-1.95c2.23-2.15,1.72-2.15,3.9,0.01c2,1.99,3.99,3.99,5.97,6C41.25,22.78,41.44,23.11,41.76,23.52z"/>
	<path class="st7" d="M15.63,32.36c0.3,0.23,0.56,0.4,0.78,0.61c2.4,2.4,4.78,4.82,7.2,7.21c0.63,0.63,0.6,1.11-0.02,1.7
		c-2.29,2.21-1.8,2.35-4.06,0.07c-1.96-1.98-3.94-3.95-5.9-5.93c-0.91-0.92-0.91-1.05,0.02-1.99c0.4-0.41,0.8-0.82,1.22-1.21
		C15.08,32.65,15.34,32.53,15.63,32.36z"/>
	<path class="st7" d="M40.14,39.98c-0.69,0.71-1.43,1.47-2.13,2.2c-2.49-2.5-4.96-4.98-7.47-7.5c0.69-0.65,1.49-1.4,2.23-2.09
		C35.18,35,37.64,37.47,40.14,39.98z"/>
</g>
</svg>
