<?xml version="1.0" encoding="utf-8"?>
<!-- Generator: Adobe Illustrator 28.0.0, SVG Export Plug-In . SVG Version: 6.00 Build 0)  -->
<svg version="1.1" id="Capa_1" xmlns="http://www.w3.org/2000/svg" xmlns:xlink="http://www.w3.org/1999/xlink" x="0px" y="0px"
	 viewBox="0 0 698.47 392.89" style="enable-background:new 0 0 698.47 392.89;" xml:space="preserve">
<style type="text/css">
	.st0{fill:#333333;}
	.st1{fill:#C3F25C;}
	.st2{fill:none;stroke:#C3F25C;stroke-width:2;stroke-miterlimit:10;}
	.st3{fill:#6A66F2;}
	.st4{fill:#008989;}
	.st5{fill:#F2E96B;}
	.st6{fill:none;stroke:#F2E96B;stroke-width:2;stroke-miterlimit:10;}
	.st7{fill:#FFFFFF;}
</style>
<g>
	<g>
		<path class="st0" d="M90.15,93.58c7.14-7.23,17.03-10.84,29.68-10.84h95.14v37.95h-65.6c-1.45,0-2.53,0.5-3.25,1.49
			c-0.72,1-1.08,2.13-1.08,3.39v123.61h4.34v-87.28v-36.87h65.6v161.01H79.44V122.58C79.44,110.47,83.01,100.8,90.15,93.58z"/>
	</g>
	<g>
		<path class="st0" d="M229.75,93.58c7.14-7.23,17.03-10.84,29.68-10.84h95.14v163.45c0,12.11-3.57,21.78-10.71,29
			c-7.14,7.23-17.12,10.84-29.95,10.84h-94.87V122.58C219.04,110.47,222.61,100.8,229.75,93.58z M288.3,247.81
			c0.45-0.9,0.68-1.99,0.68-3.25V119.33h-1.9c-0.72,0-1.31,0.5-1.76,1.49c-0.45,0.99-0.68,2.12-0.68,3.39v124.96h1.9
			C287.26,249.17,287.84,248.72,288.3,247.81z"/>
	</g>
	<g>
		<path class="st0" d="M358.64,82.73h65.6v13.55h68.58v36.87h-68.58v116.02h2.44c0.54,0,0.99-0.41,1.36-1.22
			c0.36-0.81,0.54-1.67,0.54-2.57V137.49h64.24V247c0,11.02-3.71,20.29-11.11,27.78c-7.41,7.5-16.9,11.25-28.46,11.25h-94.6V82.73z"
			/>
	</g>
	<g>
		<path class="st0" d="M507.58,93.58c7.14-7.23,17.03-10.84,29.68-10.84h95.14v163.45c0,12.11-3.57,21.78-10.71,29
			c-7.14,7.23-17.12,10.84-29.95,10.84h-94.87V122.58C496.88,110.47,500.44,100.8,507.58,93.58z M566.13,247.81
			c0.45-0.9,0.68-1.99,0.68-3.25V119.33h-1.9c-0.72,0-1.31,0.5-1.76,1.49c-0.45,0.99-0.68,2.12-0.68,3.39v124.96h1.9
			C565.09,249.17,565.68,248.72,566.13,247.81z"/>
	</g>
</g>
<g>
	<g>
		<path class="st3" d="M203.08,300.92c16.4-5.1,16.96-6.87,16.96-11.75c0-2.77-1.33-4.1-3.1-4.1c-2.11,0-3.44,1.77-3.44,5.65
			c0,1.22,0,2.77,0.22,4.21h-30.15c-0.33-1.33-0.67-4.66-0.67-6.65c0-14.19,9.42-27.16,39.57-27.16c28.6,0,38.13,11.2,38.13,24.83
			c0,11.31-7.98,18.18-21.84,21.17c-1.11,0.22-1.11,0.44-1.11,0.78h26.16v27.27h-81.91C181.91,315.33,183.35,307.12,203.08,300.92z"
			/>
		<path class="st0" d="M264.82,336.17h-83.91v-1c0-20.56,1.89-28.92,21.87-35.2l0,0c5.28-1.64,8.85-2.92,11.26-4.03h-31.25
			l-0.19-0.76c-0.35-1.4-0.69-4.82-0.69-6.89c0-10.52,5.27-28.16,40.57-28.16c32.34,0,39.13,14.05,39.13,25.83
			c0,10.06-6.21,17.24-18.04,20.95h21.25V336.17z M182.91,334.17h79.91V308.9h-26.16v-1c0-1.27,0.99-1.57,1.91-1.76
			c13.95-3.01,21.03-9.81,21.03-20.19c0-15.59-12.84-23.83-37.13-23.83c-31.88,0-38.57,14.22-38.57,26.16c0,1.6,0.22,4.13,0.48,5.65
			h28.21c-0.1-1.14-0.1-2.26-0.1-3.21c0-6,3.1-6.65,4.44-6.65c1.89,0,4.1,1.34,4.1,5.1c0,5.85-1.63,7.72-17.66,12.7
			C184.9,307.68,182.97,315.02,182.91,334.17z M216.93,286.07c-2.01,0-2.44,2.53-2.44,4.65c0,1.2,0,2.69,0.21,4.06l0.12,0.77
			c4.21-2.12,4.21-3.72,4.21-6.38C219.04,288.01,218.76,286.07,216.93,286.07z"/>
	</g>
	<g>
		<path class="st3" d="M268.36,298.26c0-22.17,13.63-37.13,43.23-37.13s43.23,14.96,43.23,37.13c0,21.28-12.08,38.02-43.23,38.02
			S268.36,319.54,268.36,298.26z M314.25,298.59c0-7.98-0.78-10.2-2.66-10.2s-2.66,2.22-2.66,10.2c0,8.54,0.78,10.42,2.66,10.42
			S314.25,307.12,314.25,298.59z"/>
		<path class="st0" d="M311.59,337.27c-38.48,0-44.23-24.45-44.23-39.02c0-24.23,16.12-38.13,44.23-38.13s44.23,13.9,44.23,38.13
			C355.82,312.83,350.07,337.27,311.59,337.27z M311.59,262.12c-27.23,0-42.23,12.83-42.23,36.13c0,23.87,15,37.02,42.23,37.02
			s42.23-13.15,42.23-37.02C353.82,274.96,338.82,262.12,311.59,262.12z M311.59,310.01c-3.13,0-3.66-3.52-3.66-11.42
			c0-7.43,0.57-11.2,3.66-11.2s3.66,3.77,3.66,11.2C315.25,306.48,314.72,310.01,311.59,310.01z M311.59,289.39
			c-1.15,0-1.66,2.84-1.66,9.2c0,8.28,0.8,9.42,1.66,9.42s1.66-1.14,1.66-9.42C313.25,292.23,312.74,289.39,311.59,289.39z"/>
	</g>
	<g>
		<path class="st3" d="M380.42,300.92c16.4-5.1,16.96-6.87,16.96-11.75c0-2.77-1.33-4.1-3.1-4.1c-2.11,0-3.44,1.77-3.44,5.65
			c0,1.22,0,2.77,0.22,4.21h-30.15c-0.33-1.33-0.67-4.66-0.67-6.65c0-14.19,9.42-27.16,39.57-27.16c28.6,0,38.13,11.2,38.13,24.83
			c0,11.31-7.98,18.18-21.84,21.17c-1.11,0.22-1.11,0.44-1.11,0.78h26.16v27.27h-81.91C359.25,315.33,360.69,307.12,380.42,300.92z"
			/>
		<path class="st0" d="M442.16,336.17h-83.91v-1c0-20.56,1.89-28.92,21.87-35.2l0,0c5.28-1.64,8.85-2.92,11.26-4.03h-31.25
			l-0.19-0.76c-0.35-1.4-0.69-4.82-0.69-6.89c0-10.52,5.27-28.16,40.57-28.16c32.34,0,39.13,14.05,39.13,25.83
			c0,10.06-6.21,17.24-18.04,20.95h21.25V336.17z M360.25,334.17h79.91V308.9H414v-1c0-1.27,0.99-1.57,1.91-1.76
			c13.95-3.01,21.03-9.81,21.03-20.19c0-15.59-12.84-23.83-37.13-23.83c-31.88,0-38.57,14.22-38.57,26.16c0,1.6,0.22,4.13,0.48,5.65
			h28.21c-0.1-1.14-0.1-2.26-0.1-3.21c0-6,3.1-6.65,4.44-6.65c1.89,0,4.1,1.34,4.1,5.1c0,5.85-1.63,7.72-17.66,12.7
			C362.24,307.68,360.31,315.02,360.25,334.17z M394.28,286.07c-2.01,0-2.44,2.53-2.44,4.65c0,1.2,0,2.69,0.21,4.06l0.12,0.77
			c4.21-2.12,4.21-3.72,4.21-6.38C396.38,288.01,396.11,286.07,394.28,286.07z"/>
	</g>
	<g>
		<path class="st3" d="M445.71,310.89c0-3.1,0.67-6.32,1.11-7.54h29.59c-0.11,1-0.11,1.77-0.11,2.22c0,3.21,3.33,4.54,8.09,4.54
			c5.99,0,7.21-1.66,7.21-3.55c0-1.44-1-2.22-3.44-2.22h-6.98v-11.31h7.09c2.44,0,3.33-0.89,3.33-2.44c0-1.44-1-3.33-7.21-3.33
			c-5.1,0-6.65,1.77-6.65,4.32c0,0.78,0.11,1.55,0.22,2.11H449.7c-0.67-1.33-1.44-4.54-1.44-8.42c0-13.08,10.09-24.16,41.01-24.16
			c28.26,0,38.46,9.42,38.46,20.51c0,6.87-4.77,11.08-11.42,12.86v0.44c11.08,1.88,15.85,8.65,15.85,16.4
			c0,14.3-11.08,24.94-45,24.94C451.47,336.27,445.71,322.64,445.71,310.89z"/>
		<path class="st0" d="M487.16,337.27c-28.57,0-42.45-8.63-42.45-26.38c0-3.22,0.68-6.54,1.17-7.88l0.24-0.66h31.41l-0.12,1.11
			c-0.1,0.94-0.1,1.67-0.1,2.11c0,2.93,3.86,3.54,7.09,3.54c6.21,0,6.21-1.79,6.21-2.55c0-0.42,0-1.22-2.44-1.22h-7.98v-13.31h8.09
			c2.33,0,2.33-0.83,2.33-1.44c0-1.92-3.37-2.33-6.21-2.33c-5.65,0-5.65,2.24-5.65,3.32c0,0.78,0.13,1.53,0.2,1.91l0.24,1.2h-30.1
			l-0.28-0.55c-0.74-1.49-1.55-4.9-1.55-8.87c0-11.48,7.29-25.16,42.01-25.16c34.33,0,39.46,13.47,39.46,21.51
			c0,5.89-3.4,10.49-9.45,12.92c8.86,2.38,13.88,8.38,13.88,16.78C533.16,328.55,517.68,337.27,487.16,337.27z M447.55,304.35
			c-0.39,1.44-0.84,4.04-0.84,6.54c0,10.47,4.19,24.38,40.45,24.38c29.2,0,44-8.05,44-23.94c0-8.18-5.47-13.8-15.02-15.42
			l-0.83-0.14v-2.06l0.74-0.2c3.99-1.06,10.67-4.02,10.67-11.89c0-12.58-13.3-19.51-37.46-19.51c-26.17,0-40.01,8.01-40.01,23.16
			c0,3.36,0.59,6.05,1.1,7.42h26.44c-0.04-0.34-0.06-0.72-0.06-1.11c0-3.53,2.57-5.32,7.65-5.32c5.44,0,8.21,1.46,8.21,4.33
			c0,1.57-0.75,3.44-4.33,3.44h-6.09v9.31h5.98c3.67,0,4.44,1.75,4.44,3.22c0,4.08-4.68,4.55-8.21,4.55c-7.91,0-9.09-3.47-9.09-5.54
			c0-0.27,0-0.69,0.03-1.22H447.55z"/>
	</g>
</g>
<g>
	<g>
		<path class="st0" d="M226.92,169.29c2.52,0,4.2,1.08,4.2,3.24c0,2.16-1.32,5.88-3.48,9.96c-0.72,1.44-1.56,2.88-2.4,4.32
			c14.28-8.88,18.96-11.28,21.72-11.28c4.32,0,4.2,4.8,1.56,10.08l4.68-3.36c5.52-3.72,10.68-6,13.8-6c1.32,0,2.4,0.96,2.4,2.16
			c0,2.28-2.04,5.28-3.84,7.8c-4.2,6-4.2,6.6,0,6.6c8.39,0,23.99-3.04,41.31-11.38c1.04-5.95,6.13-11.3,14.85-11.3
			c3.6,0,6.36,2.4,6.36,5.64c0,7.61-8.33,12.59-14.53,12.59c-0.94,0-1.83-0.11-2.63-0.35c1.44,2.88,4.32,5.28,8.76,6.12
			c1.64,0.34,3.41,0.49,5.29,0.49c12.88,0,30.73-7.29,43.19-13.57l1.32,2.88c-12.41,6.26-30.88,13.87-44.57,13.87
			c-2.06,0-4.02-0.17-5.83-0.55c-7.82-1.59-11.73-6.8-12.3-12.29c-17.14,7.87-32.82,10.97-41.22,10.97c-7.44,0-8.04-3.6-2.52-11.52
			c1.8-2.52,2.64-3.96,3-4.92c-2.52,0.36-6.72,2.4-11.16,5.4l-12.24,8.64l-0.84-1.32l-1.08-1.08c4.2-4.2,7.92-12.48,6.24-12.48
			c-2.28,0-7.8,3.12-26.64,14.88l-0.84-1.32l-0.96-1.2l0.12-0.12c1.08-1.08,4.08-5.76,6.12-9.84c1.92-3.6,3.24-7.08,3.24-8.52
			c0,0-0.24-0.12-1.08-0.12c-5.57,0-20.19,6.46-30.39,10.82l0.01,0.04c-13.68,5.76-32.76,12.96-40.92,12.96c-5.28,0-8.4-2.4-8.4-6.6
			c0-2.28,0.84-5.04,1.92-7.56c-5.64,5.28-13.32,11.4-18.12,11.4c-2.4,0-3.84-2.64-3.84-5.64c0-0.96,0.15-1.94,0.42-2.92
			c-13.08,6.04-32.37,14.86-50.58,23.08c-18.39,26.4-38.54,53.19-51.47,53.19c-1.41,0-2.74-0.32-3.96-0.99
			c-9.36-5.04-5.76-28.32,33.6-45.84l19.68-8.88c2.16-3,4.2-5.88,6.24-8.88c1.92-2.76,3.72-5.4,5.64-8.04
			c-3.6,2.76-7.2,4.92-10.32,4.92c-2.4,0-3.84-2.64-3.84-5.64c0-7.2,8.04-15.6,15.24-15.6c2.88,0,5.28,1.56,7.2,4.32l1.2-1.32
			l0.12-0.12l1.08,1.08l1.2,0.96c-4.56,6.36-9.72,13.68-15,21.24c-1.08,1.56-2.16,3.12-3.24,4.56c18.41-8.2,37.16-16.86,49.18-22.39
			c2.92-4.61,8.07-8.33,12.86-8.33c3.48,0,6.48,1.8,7.68,4.68l3.84-3.84l1.44,1.44l0.96,0.6c-1.32,2.04-6,9.96-6,14.52
			c0,2.4,1.56,3.48,5.28,3.48c5.82,0,19.8-4.42,38.06-12.03l-0.01-0.02C203.88,176.73,220.32,169.29,226.92,169.29 M313.6,185.28
			c4.48,0,11.36-3.69,11.36-9.51c0-1.44-1.32-2.52-3.24-2.52c-7.32,0-11.4,4.56-11.88,9.48
			C309.95,184.48,311.52,185.28,313.6,185.28 M131.02,190.35c3.96,0,11.16-6,16.56-11.04c-0.36-2.28-2.52-3.96-5.16-3.96
			c-5.4,0-12.12,7.08-12.12,12.48C130.3,189.15,130.78,190.35,131.02,190.35 M76.43,190.35c4.56,0,11.64-6.72,16.32-11.52
			c-1.32-2.4-2.88-3.48-4.92-3.48c-5.4,0-12.12,7.08-12.12,12.48C75.71,189.15,76.19,190.35,76.43,190.35 M25.93,258.25
			c10.44,0,28-22.98,45.45-47.75c-5.16,2.4-10.32,4.56-15,6.72c-37.68,16.8-40.8,36.24-33.36,40.32
			C23.92,258.02,24.89,258.25,25.93,258.25 M226.92,165.29c-6.14,0-17.13,4.51-30.87,10.4c-1.38,0.59-2.7,1.16-3.93,1.68l-2.53,1.07
			c-19.15,7.84-30.08,10.67-33.97,10.67c-0.55,0-0.95-0.03-1.24-0.07c0.37-2.99,3.3-8.64,5.32-11.76l2.21-3.41l-3.45-2.15
			l-0.57-0.36l-1.12-1.12l-2.83-2.83l-2.83,2.83l-0.69,0.69c-2.16-1.72-4.97-2.71-8-2.71c-6.3,0-12.18,4.45-15.55,9.17l-2.53,1.17
			c-8.94,4.12-20.3,9.34-32.29,14.76c3.63-5.17,6.92-9.8,9.82-13.85l2.21-3.08l-2.96-2.37l-1.03-0.82l-0.92-0.92l-2.83-2.83
			l-1.3,1.3c-2.59-2.01-5.22-2.52-7.22-2.52c-9.35,0-19.24,10.07-19.24,19.6c0,5.27,2.94,9.18,7.08,9.6
			c-1.04,1.49-2.16,3.06-3.42,4.83l-18.7,8.44c-29.04,12.93-39.84,29.38-40.26,40.47c-0.21,5.58,2.19,10.27,6.41,12.54
			c1.77,0.97,3.75,1.47,5.86,1.47c13.62,0,30.83-20.63,54.13-54c14.35-6.49,30.57-13.88,43.93-20.03c1.03,3.8,3.83,6.32,7.42,6.32
			c3.29,0,7.46-1.82,12.44-5.43c1.07,5.05,5.61,8.19,12.15,8.19c9.53,0,30.7-8.32,42.47-13.27l3.67-1.55l-0.02-0.06
			c6.15-2.63,14.68-6.24,20.38-7.95c-0.27,0.56-0.57,1.15-0.9,1.78l-0.02,0.05l-0.02,0.05c-2.06,4.12-4.75,8.14-5.38,8.81
			l-0.11,0.11l-2.53,2.53l2.24,2.8l0.82,1.03l0.72,1.14l2.13,3.35l3.36-2.1c5.14-3.21,11.81-7.37,16.97-10.38
			c-0.49,0.64-0.99,1.23-1.52,1.75l-2.83,2.83l2.83,2.83l0.77,0.77l0.6,0.95l2.25,3.54l3.43-2.42L256,189
			c-0.79,2.31-0.95,4.64,0.15,6.73c2.2,4.21,7.62,4.21,9.41,4.21c7.73,0,22.12-2.51,38.58-9.44c2.34,5.39,7.42,9.31,14.15,10.68
			c2,0.42,4.23,0.63,6.62,0.63c15.67,0,35.78-8.96,46.37-14.3l3.44-1.73l-1.6-3.5l-1.32-2.88l-1.73-3.78l-3.71,1.87
			c-7.84,3.95-27.56,13.14-41.39,13.14c-1.11,0-2.16-0.06-3.13-0.19c5.68-2.68,10.24-7.98,10.24-14.66c0-5.41-4.55-9.64-10.36-9.64
			c-10.12,0-16.24,5.98-18.28,12.5c-14.1,6.55-26.77,9.43-34.73,10.05c0.04-0.06,0.09-0.12,0.12-0.17c2.3-3.22,4.56-6.67,4.56-10.09
			c0-3.4-2.87-6.16-6.4-6.16c-4.05,0-9.08,2.43-12.89,4.69c-0.19-0.78-0.48-1.5-0.88-2.14c-1.3-2.1-3.53-3.26-6.27-3.26
			c-2.68,0-5.66,1.08-12.5,5.02c0.4-1.4,0.66-2.79,0.66-4.02C235.12,168.93,232.58,165.29,226.92,165.29L226.92,165.29z
			 M314.32,181.23c0.86-1.9,2.8-3.61,6.24-3.93C319.52,179.35,316.6,180.94,314.32,181.23L314.32,181.23z M136.02,183.76
			c1.45-1.95,3.56-3.71,5.36-4.24C139.2,181.4,137.43,182.77,136.02,183.76L136.02,183.76z M81.46,183.71
			c1.25-1.68,3-3.21,4.61-3.93C84.22,181.5,82.7,182.77,81.46,183.71L81.46,183.71z M25.93,254.25c-0.4,0-0.72-0.07-1.02-0.23
			c-1.1-0.61-1.16-2.35-1.13-3.06c0.29-6.96,9.42-19.02,34.23-30.08l0.02-0.01l0.02-0.01c0.48-0.22,0.96-0.44,1.45-0.66
			c-5.39,7.36-11.17,14.86-16.47,20.81C32.77,252.53,27.92,254.25,25.93,254.25L25.93,254.25z"/>
	</g>
	<g>
		<path class="st5" d="M368.16,181.05c-14.28,7.2-35.64,15.72-48.48,13.08c-4.44-0.84-7.32-3.24-8.76-6.12
			c6.12,1.8,17.16-3.48,17.16-12.24c0-3.24-2.76-5.64-6.36-5.64c-8.72,0-13.81,5.35-14.85,11.3c-17.32,8.34-32.92,11.38-41.31,11.38
			c-4.2,0-4.2-0.6,0-6.6c1.8-2.52,3.84-5.52,3.84-7.8c0-1.2-1.08-2.16-2.4-2.16c-3.12,0-8.28,2.28-13.8,6l-4.68,3.36
			c2.64-5.28,2.76-10.08-1.56-10.08c-2.76,0-7.44,2.4-21.72,11.28c0.84-1.44,1.68-2.88,2.4-4.32c2.16-4.08,3.48-7.8,3.48-9.96
			c0-2.16-1.68-3.24-4.2-3.24c-6.6,0-23.04,7.44-33.24,11.76l0.01,0.02c-18.26,7.61-32.24,12.03-38.06,12.03
			c-3.72,0-5.28-1.08-5.28-3.48c0-4.56,4.68-12.48,6-14.52l-0.96-0.6l-1.44-1.44l-3.84,3.84c-1.2-2.88-4.2-4.68-7.68-4.68
			c-4.79,0-9.94,3.72-12.86,8.33c-12.02,5.53-30.77,14.19-49.18,22.39c1.08-1.44,2.16-3,3.24-4.56c5.28-7.56,10.44-14.88,15-21.24
			l-1.2-0.96l-1.08-1.08l-0.12,0.12l-1.2,1.32c-1.92-2.76-4.32-4.32-7.2-4.32c-7.2,0-15.24,8.4-15.24,15.6c0,3,1.44,5.64,3.84,5.64
			c3.12,0,6.72-2.16,10.32-4.92c-1.92,2.64-3.72,5.28-5.64,8.04c-2.04,3-4.08,5.88-6.24,8.88l-19.68,8.88
			c-39.36,17.52-42.96,40.8-33.6,45.84c12.48,6.84,35.04-22.92,55.44-52.2c18.21-8.23,37.49-17.04,50.58-23.08
			c-0.27,0.98-0.42,1.96-0.42,2.92c0,3,1.44,5.64,3.84,5.64c4.8,0,12.48-6.12,18.12-11.4c-1.08,2.52-1.92,5.28-1.92,7.56
			c0,4.2,3.12,6.6,8.4,6.6c8.16,0,27.24-7.2,40.92-12.96l-0.01-0.04c10.2-4.35,24.82-10.82,30.39-10.82c0.84,0,1.08,0.12,1.08,0.12
			c0,1.44-1.32,4.92-3.24,8.52c-2.04,4.08-5.04,8.76-6.12,9.84l-0.12,0.12l0.96,1.2l0.84,1.32c18.84-11.76,24.36-14.88,26.64-14.88
			c1.68,0-2.04,8.28-6.24,12.48l1.08,1.08l0.84,1.32l12.24-8.64c4.44-3,8.64-5.04,11.16-5.4c-0.36,0.96-1.2,2.4-3,4.92
			c-5.52,7.92-4.92,11.52,2.52,11.52c8.4,0,24.08-3.1,41.22-10.97c0.57,5.49,4.48,10.7,12.3,12.29c13.8,2.88,36.12-6.12,50.4-13.32
			L368.16,181.05z M76.43,190.35c-0.24,0-0.72-1.2-0.72-2.52c0-5.4,6.72-12.48,12.12-12.48c2.04,0,3.6,1.08,4.92,3.48
			C88.07,183.63,80.99,190.35,76.43,190.35z M23.03,257.54c-7.44-4.08-4.32-23.52,33.36-40.32c4.68-2.16,9.84-4.32,15-6.72
			C52.19,237.74,32.87,262.82,23.03,257.54z M131.02,190.35c-0.24,0-0.72-1.2-0.72-2.52c0-5.4,6.72-12.48,12.12-12.48
			c2.64,0,4.8,1.68,5.16,3.96C142.18,184.35,134.98,190.35,131.02,190.35z M309.84,182.73c0.48-4.92,4.56-9.48,11.88-9.48
			c1.92,0,3.24,1.08,3.24,2.52C324.96,184.29,310.2,188.25,309.84,182.73z"/>
	</g>
	<g>
		<path class="st5" d="M25.53,262.17c-1.57,0-3.04-0.36-4.43-1.11c-3.23-1.74-4.99-5.31-4.83-9.78c0.38-10.18,10.7-25.47,38.5-37.85
			l19.43-8.77c2.43-3.38,4.31-6.05,6.07-8.64l1.35-1.94c0.38-0.55,0.75-1.09,1.13-1.63c-2.43,1.37-4.46,2.01-6.33,2.01
			c-2.8,0-4.84-2.79-4.84-6.64c0-7.91,8.5-16.6,16.24-16.6c2.78,0,5.22,1.26,7.27,3.76l1.25-1.29l1.75,1.75l1.9,1.52l-0.55,0.77
			c-4.22,5.89-9.27,13.03-14.99,21.23c-0.36,0.52-0.72,1.04-1.09,1.57c15.54-6.95,30.85-14,42.24-19.24l3.28-1.51
			c3.35-5.12,8.75-8.55,13.54-8.55c3.34,0,6.31,1.54,7.93,4.02l3.59-3.59l2.07,2.07l1.73,1.08l-0.55,0.85
			c-1.62,2.51-5.84,9.92-5.84,13.98c0,1.25,0.33,2.48,4.28,2.48c5.56,0,19.34-4.35,36.96-11.65l0.71-0.32
			c1.23-0.52,2.56-1.09,3.94-1.68c10.55-4.52,23.68-10.15,29.69-10.15c3.21,0,5.2,1.62,5.2,4.24c0,2.31-1.31,6.11-3.6,10.43
			c-0.16,0.32-0.32,0.63-0.49,0.95c11.87-7.3,16.14-9.38,18.93-9.38c2.13,0,3.2,1,3.72,1.84c0.91,1.47,0.92,3.71,0.08,6.4l1.86-1.33
			c5.84-3.94,11.07-6.19,14.38-6.19c1.88,0,3.4,1.42,3.4,3.16c0,2.53-1.99,5.53-4.03,8.38c-0.93,1.32-2.81,4.02-2.96,4.86
			c0.23,0.08,0.81,0.16,2.14,0.16c7.98,0,23.32-2.9,40.43-11.06c1.17-5.47,5.93-11.62,15.74-11.62c4.2,0,7.36,2.85,7.36,6.64
			c0,3.84-1.96,7.42-5.51,10.08c-3.2,2.39-7.18,3.68-10.59,3.51c1.59,1.92,3.97,3.24,6.88,3.79c14.16,2.91,38.17-8.12,47.84-12.99
			l0.93-0.47l2.15,4.7l-0.86,0.43c-10.15,5.12-35.44,16.66-51.05,13.41c-6.98-1.42-11.71-5.78-12.89-11.81
			c-17.29,7.75-32.52,10.51-40.43,10.51c-3.63,0-5.84-0.85-6.75-2.59c-1.16-2.22-0.11-5.45,3.41-10.5c0.79-1.11,1.42-2.04,1.89-2.8
			c-2.34,0.84-5.46,2.51-8.67,4.68l-13.08,9.23l-1.34-2.11l-1.71-1.71l0.71-0.71c3.27-3.27,5.95-8.78,6.32-10.69
			c-2.78,0.65-10.19,5.09-25.48,14.64l-0.84,0.52l-1.34-2.11l-1.49-1.86l0.75-0.75c0.92-0.92,3.82-5.35,5.93-9.58
			c1.63-3.06,2.66-5.71,3-7.19c-4.98,0.04-18.01,5.62-27.54,9.71l-1.5,0.64l0,0.01l-0.9,0.42c-9.31,3.92-31.97,13.04-41.31,13.04
			c-5.89,0-9.4-2.84-9.4-7.6c0-1.34,0.27-2.79,0.65-4.16c-5.25,4.56-11.47,9-15.85,9c-2.8,0-4.84-2.79-4.84-6.64
			c0-0.39,0.02-0.79,0.07-1.2c-14.23,6.56-32.61,14.95-48.56,22.16C59.43,234.98,39.2,262.17,25.53,262.17z M91.61,183.56
			l-4.06,5.58c-1.46,2.01-2.83,3.99-4.28,6.08l-1.34,1.94c-1.81,2.65-3.73,5.4-6.25,8.89l-0.16,0.22l-0.24,0.11l-19.68,8.88
			c-26.97,12-36.96,26.52-37.32,36.1c-0.14,3.68,1.24,6.58,3.78,7.95c13.02,7.14,40.79-32.73,54.14-51.89l0.16-0.23l0.25-0.11
			c16.68-7.54,36.05-16.38,50.57-23.08l1.94-0.9l-0.56,2.07c-0.25,0.94-0.38,1.83-0.38,2.66c0,2.25,1,4.64,2.84,4.64
			c3.53,0,9.88-4.06,17.44-11.13l3.48-3.26l-1.88,4.38c-1.2,2.81-1.84,5.29-1.84,7.17c0,4.87,4.64,5.6,7.4,5.6
			c8.72,0,30.11-8.52,39.74-12.55l0.77-0.37l2.4-1.03c10.26-4.4,23.02-9.87,28.38-9.87c0.7,0,1.23,0.08,1.53,0.23l0.55,0.28v0.62
			c0,1.99-1.81,6.09-3.36,8.99c-1.69,3.38-4.35,7.72-5.81,9.53l0.49,0.62l0.31,0.48c19.1-11.91,23.82-14.51,26.33-14.51
			c0.57,0,1.05,0.32,1.27,0.86c0.85,2.04-2.77,8.85-6.12,12.6l0.53,0.56l0.28,0.44l11.38-8.04c4.61-3.11,8.94-5.19,11.59-5.57
			l1.67-0.24l-0.59,1.58c-0.42,1.13-1.39,2.72-3.12,5.15c-3.62,5.2-3.78,7.45-3.27,8.42c0.66,1.26,3.07,1.52,4.98,1.52
			c7.89,0,23.31-2.85,40.8-10.88l1.27-0.58l0.15,1.39c0.61,5.81,4.91,10.08,11.51,11.41c14.59,3.05,38.42-7.59,48.89-12.8
			l-0.49-1.06c-10.4,5.17-33.89,15.64-48.2,12.7c-4.36-0.82-7.72-3.19-9.45-6.65l-1.03-2.05l2.2,0.65
			c3.14,0.92,7.73-0.23,11.17-2.81c3.03-2.27,4.71-5.28,4.71-8.47c0-2.65-2.3-4.64-5.36-4.64c-8.88,0-13.02,5.64-13.87,10.47
			l-0.09,0.51l-0.46,0.22c-17.59,8.47-33.48,11.48-41.75,11.48c-1.88,0-3.37-0.09-3.95-1.2c-0.68-1.31,0.32-2.95,3.13-6.97
			c1.37-1.92,3.66-5.12,3.66-7.23c0-0.64-0.63-1.16-1.4-1.16c-2.88,0-7.83,2.18-13.24,5.83l-7.94,5.7l1.81-3.62
			c1.69-3.38,2.21-6.35,1.35-7.74c-0.37-0.6-1.03-0.89-2.02-0.89c-2.53,0-7.48,2.6-21.19,11.13l-3.42,2.13l2.03-3.48
			c0.83-1.42,1.67-2.86,2.37-4.26c2.12-4,3.38-7.55,3.38-9.51c0-1.85-1.74-2.24-3.2-2.24c-5.6,0-19.06,5.78-28.9,9.99
			c-1.05,0.45-2.07,0.89-3.04,1.3l0,0.01l-0.91,0.41c-18.46,7.69-32.47,12.11-38.45,12.11c-1.55,0-6.28,0-6.28-4.48
			c0-4.57,4.11-11.73,5.62-14.2l-0.29-0.21l-0.73-0.73l-4.19,4.19l-0.57-1.38c-1.03-2.47-3.68-4.07-6.76-4.07
			c-4.14,0-9.08,3.24-12.01,7.87l-0.16,0.25l-3.82,1.76c-12.22,5.62-28.95,13.33-45.65,20.76l-3.52,1.57l2.31-3.08
			c1.06-1.42,2.15-2.99,3.21-4.51c5.5-7.87,10.36-14.75,14.47-20.5l-0.54-0.44l-0.34-0.34l-1.45,1.6l-0.72-1.03
			c-1.8-2.58-3.94-3.89-6.38-3.89c-6.52,0-14.24,7.91-14.24,14.6c0,2.25,1,4.64,2.84,4.64c3.19,0,7.07-2.69,9.71-4.71L91.61,183.56z
			 M25.9,259.25c-1.2,0-2.31-0.27-3.35-0.83l-0.01,0c-2.53-1.39-3.9-4.18-3.75-7.67c0.36-8.79,10.32-22.46,37.19-34.44
			c2.18-1.01,4.49-2.02,6.84-3.06c2.66-1.17,5.41-2.38,8.14-3.65l3.4-1.58l-2.16,3.06C51.89,239.9,36.04,259.25,25.9,259.25z
			 M23.51,256.67c9.68,5.17,32.37-25.95,44.93-43.72c-1.62,0.73-3.23,1.44-4.81,2.13c-2.35,1.03-4.64,2.04-6.82,3.05
			c-26.04,11.61-35.68,24.5-36.01,32.7C20.68,253.53,21.67,255.66,23.51,256.67z M131.02,191.35c-1.67,0-1.72-3.49-1.72-3.52
			c0-6.05,7.23-13.48,13.12-13.48c3.12,0,5.71,2.02,6.15,4.8l0.08,0.52l-0.39,0.36C140.11,187.65,134.47,191.35,131.02,191.35z
			 M142.42,176.35c-4.78,0-11.12,6.54-11.12,11.48c0,0.6,0.12,1.14,0.23,1.48c1.9-0.28,6.11-2.16,14.94-10.34
			C145.98,177.42,144.36,176.35,142.42,176.35z M76.43,191.35c-1.67,0-1.72-3.49-1.72-3.52c0-6.05,7.23-13.48,13.12-13.48
			c2.42,0,4.32,1.31,5.8,4l0.36,0.65l-0.52,0.53C88.51,184.6,81.36,191.35,76.43,191.35z M87.83,176.35
			c-4.78,0-11.12,6.54-11.12,11.48c0,0.61,0.12,1.15,0.23,1.49c3.06-0.37,7.95-3.94,14.55-10.64
			C90.46,177.07,89.31,176.35,87.83,176.35z M313.6,186.28c-2.81,0-4.62-1.32-4.76-3.48l-0.01-0.08l0.01-0.08
			c0.5-5.17,4.68-10.38,12.88-10.38c2.46,0,4.24,1.48,4.24,3.52c0,6.26-7.02,10.34-12.05,10.5
			C313.8,186.28,313.7,186.28,313.6,186.28z M310.84,182.74c0.15,1.41,1.93,1.57,3,1.54c4.13-0.13,10.12-3.51,10.12-8.5
			c0-0.89-0.92-1.52-2.24-1.52C314.82,174.25,311.3,178.5,310.84,182.74z"/>
	</g>
</g>
<g>
	<g>
		<g>
			<path class="st0" d="M456.8,163.11l1.68,2.64l-2.76,1.8l-1.68-2.64L456.8,163.11 M458,157.55l-3.39,2.21l-2.76,1.8l-3.31,2.16
				l2.12,3.34l1.68,2.64l2.17,3.41l3.39-2.21l2.76-1.8l3.31-2.16l-2.12-3.34l-1.68-2.64L458,157.55L458,157.55z"/>
		</g>
		<g>
			<polygon class="st5" points="458.48,165.75 456.8,163.11 454.04,164.91 455.72,167.55 			"/>
		</g>
		<g>
			<path class="st5" d="M455.42,168.94l-2.75-4.33l4.44-2.89l2.75,4.33L455.42,168.94z M455.41,165.21l0.61,0.95l1.08-0.71
				l-0.61-0.95L455.41,165.21z"/>
		</g>
	</g>
	<g>
		<g>
			<path class="st0" d="M576.48,169.03c2.52,0,4.2,1.08,4.2,3.24c0,2.16-1.32,5.88-3.48,9.96c-0.72,1.44-1.56,2.88-2.4,4.32
				c14.28-8.88,18.96-11.28,21.72-11.28c4.32,0,4.2,4.8,1.56,10.08l4.68-3.36c5.52-3.72,10.68-6,13.8-6c1.32,0,2.4,0.96,2.4,2.16
				c0,2.28-2.04,5.28-3.84,7.8c-4.2,6-4.2,6.6,0,6.6c8.52,0,24.48-3.12,42.12-11.76l1.32,2.88c-18,8.64-34.68,12-43.44,12
				c-7.44,0-8.04-3.6-2.52-11.52c1.8-2.52,2.64-3.96,3-4.92c-2.52,0.36-6.72,2.4-11.16,5.4l-12.24,8.64l-0.84-1.32l-1.08-1.08
				c4.2-4.2,7.92-12.48,6.24-12.48c-2.28,0-7.8,3.12-26.64,14.88l-0.84-1.32l-0.96-1.2l0.12-0.12c1.08-1.08,4.08-5.76,6.12-9.84
				c1.92-3.6,3.24-7.08,3.24-8.52c0,0-0.24-0.12-1.08-0.12c-5.69,0-20.8,6.73-31.02,11.09l0.01,0.03
				c-13.68,5.76-32.76,12.96-40.92,12.96c-5.28,0-8.4-2.4-8.4-6.6c0-2.28,0.84-5.04,1.92-7.56c-5.64,5.28-13.32,11.4-18.12,11.4
				c-2.4,0-3.84-2.64-3.84-5.64c0-0.94,0.14-1.9,0.4-2.86c-2.03,0.96-4.16,1.98-6.4,3.1c-12.24,6.12-27.36,13.56-43.2,17.16
				c-10.44,13.44-27.6,30-36.24,32.88c-1.24,0.42-2.55,0.62-3.86,0.62c-3.93,0-7.9-1.8-10.06-4.94l2.64-1.68
				c1.53,2.25,4.49,3.56,7.44,3.56c0.98,0,1.95-0.14,2.88-0.44c7.2-2.4,23.76-17.64,35.16-32.4c6-7.8,12.6-17.16,20.28-27.6
				c0.11-0.11,0.12-0.21,0.2-0.23c0.01,0,0.02,0,0.04,0c-0.01,0-0.03,0-0.04,0c-3.01,0.37-9.25,2.78-21.68,8.27l-1.2-2.88
				c9.72-4.32,19.8-8.64,23.76-8.64c3,0,3.48,2.52,1.32,5.4c-6.36,8.88-12.24,17.04-17.52,24c14.16-3.72,27.48-10.32,38.76-15.84
				c3.46-1.73,6.68-3.34,9.7-4.74c2.92-4.61,8.07-8.34,12.86-8.34c3.48,0,6.48,1.8,7.68,4.68l3.84-3.84l1.44,1.44l0.96,0.6
				c-1.32,2.04-6,9.96-6,14.52c0,2.4,1.56,3.48,5.28,3.48c5.89,0,20.12-4.52,38.69-12.29l-0.01-0.03
				C553.44,176.47,569.88,169.03,576.48,169.03 M479.96,190.35c3.96,0,11.16-6,16.56-11.04c-0.36-2.28-2.52-3.96-5.16-3.96
				c-5.4,0-12.12,7.08-12.12,12.48C479.24,189.15,479.72,190.35,479.96,190.35 M576.48,165.03c-6.14,0-17.13,4.51-30.87,10.4
				c-1.38,0.59-2.7,1.16-3.93,1.68l-3.19,1.35c-19.11,7.82-30.03,10.65-33.94,10.65c-0.55,0-0.95-0.03-1.24-0.07
				c0.37-2.99,3.3-8.64,5.32-11.76l2.21-3.41l-3.45-2.15l-0.57-0.36l-1.12-1.12l-2.83-2.83l-2.83,2.83l-0.69,0.69
				c-2.16-1.72-4.97-2.71-8-2.71c-6.31,0-12.19,4.46-15.56,9.19c-2.83,1.34-5.86,2.85-8.79,4.32l-0.8,0.39
				c-7.86,3.85-16.46,8.06-25.56,11.44c3.35-4.59,6.8-9.39,10.14-14.05c2.15-2.89,2.68-5.94,1.46-8.38
				c-1.07-2.15-3.27-3.38-6.01-3.38c-4.35,0-12.27,3.16-25.38,8.98l-3.57,1.59l1.5,3.61l1.2,2.88l1.57,3.77l3.74-1.65
				c3.02-1.34,6.27-2.76,9.31-4.02c-0.18,0.25-0.36,0.5-0.54,0.75c-4.39,6.05-8.54,11.77-12.36,16.74
				c-11.69,15.13-27.48,29.12-33.25,31.04c-0.47,0.15-1.03,0.24-1.61,0.24c-1.71,0-3.41-0.74-4.14-1.81l-2.18-3.21l-3.27,2.08
				l-2.64,1.68l-3.49,2.22l2.34,3.41c2.83,4.12,7.94,6.68,13.35,6.68c1.79,0,3.53-0.28,5.16-0.84c9.34-3.11,26.33-19.35,37.23-33.09
				c16.23-3.92,31.49-11.54,42.71-17.16c0.23-0.11,0.45-0.23,0.68-0.34c1.06,3.71,3.84,6.16,7.37,6.16c3.29,0,7.46-1.82,12.44-5.43
				c1.07,5.05,5.61,8.19,12.15,8.19c9.53,0,30.7-8.32,42.47-13.27l3.67-1.55l-0.02-0.05c6.19-2.65,15.11-6.45,21.01-8.22
				c-0.27,0.56-0.57,1.15-0.9,1.78l-0.02,0.05l-0.02,0.05c-2.06,4.12-4.75,8.14-5.38,8.81l-0.11,0.11l-2.53,2.53l2.24,2.8l0.82,1.03
				l0.72,1.14l2.13,3.35l3.36-2.1c5.14-3.21,11.81-7.37,16.97-10.38c-0.49,0.64-0.99,1.23-1.52,1.75l-2.83,2.83l2.83,2.83l0.77,0.77
				l0.6,0.95l2.25,3.54l3.43-2.42l11.06-7.81c-0.79,2.31-0.95,4.64,0.15,6.73c2.2,4.21,7.62,4.21,9.41,4.21
				c8.93,0,26.11-3.25,45.17-12.39l3.54-1.7l-1.64-3.57l-1.32-2.88l-1.71-3.73l-3.69,1.8c-15.06,7.38-28.74,10.56-37.2,11.22
				c0.05-0.06,0.09-0.12,0.12-0.17c2.3-3.22,4.56-6.67,4.56-10.09c0-3.4-2.87-6.16-6.4-6.16c-4.05,0-9.08,2.43-12.89,4.69
				c-0.19-0.78-0.48-1.5-0.88-2.14c-1.3-2.1-3.53-3.26-6.27-3.26c-2.68,0-5.66,1.08-12.5,5.02c0.4-1.4,0.66-2.79,0.66-4.02
				C584.68,168.66,582.14,165.03,576.48,165.03L576.48,165.03z M484.96,183.76c1.45-1.95,3.56-3.71,5.36-4.24
				C488.13,181.4,486.37,182.77,484.96,183.76L484.96,183.76z"/>
		</g>
		<g>
			<path class="st5" d="M657.24,180.79c-17.64,8.64-33.6,11.76-42.12,11.76c-4.2,0-4.2-0.6,0-6.6c1.8-2.52,3.84-5.52,3.84-7.8
				c0-1.2-1.08-2.16-2.4-2.16c-3.12,0-8.28,2.28-13.8,6l-4.68,3.36c2.64-5.28,2.76-10.08-1.56-10.08c-2.76,0-7.44,2.4-21.72,11.28
				c0.84-1.44,1.68-2.88,2.4-4.32c2.16-4.08,3.48-7.8,3.48-9.96c0-2.16-1.68-3.24-4.2-3.24c-6.6,0-23.04,7.44-33.24,11.76l0.01,0.03
				c-18.57,7.77-32.8,12.29-38.69,12.29c-3.72,0-5.28-1.08-5.28-3.48c0-4.56,4.68-12.48,6-14.52l-0.96-0.6l-1.44-1.44l-3.84,3.84
				c-1.2-2.88-4.2-4.68-7.68-4.68c-4.79,0-9.94,3.73-12.86,8.34c-3.01,1.4-6.24,3.01-9.7,4.74c-11.28,5.52-24.6,12.12-38.76,15.84
				c5.28-6.96,11.16-15.12,17.52-24c2.16-2.88,1.68-5.4-1.32-5.4c-3.96,0-14.04,4.32-23.76,8.64l1.2,2.88
				c12.48-5.52,18.72-7.92,21.72-8.28c-0.12,0-0.12,0.12-0.24,0.24c-7.68,10.44-14.28,19.8-20.28,27.6
				c-11.4,14.76-27.96,30-35.16,32.4c-3.72,1.2-8.28-0.12-10.32-3.12l-2.64,1.68c2.88,4.2,9,6,13.92,4.32
				c8.64-2.88,25.8-19.44,36.24-32.88c15.84-3.6,30.96-11.04,43.2-17.16c2.24-1.12,4.37-2.14,6.4-3.1c-0.25,0.96-0.4,1.92-0.4,2.86
				c0,3,1.44,5.64,3.84,5.64c4.8,0,12.48-6.12,18.12-11.4c-1.08,2.52-1.92,5.28-1.92,7.56c0,4.2,3.12,6.6,8.4,6.6
				c8.16,0,27.24-7.2,40.92-12.96l-0.01-0.03c10.21-4.35,25.33-11.09,31.02-11.09c0.84,0,1.08,0.12,1.08,0.12
				c0,1.44-1.32,4.92-3.24,8.52c-2.04,4.08-5.04,8.76-6.12,9.84l-0.12,0.12l0.96,1.2l0.84,1.32c18.84-11.76,24.36-14.88,26.64-14.88
				c1.68,0-2.04,8.28-6.24,12.48l1.08,1.08l0.84,1.32l12.24-8.64c4.44-3,8.64-5.04,11.16-5.4c-0.36,0.96-1.2,2.4-3,4.92
				c-5.52,7.92-4.92,11.52,2.52,11.52c8.76,0,25.44-3.36,43.44-12L657.24,180.79z M479.96,190.35c-0.24,0-0.72-1.2-0.72-2.52
				c0-5.4,6.72-12.48,12.12-12.48c2.64,0,4.8,1.68,5.16,3.96C491.12,184.35,483.92,190.35,479.96,190.35z"/>
		</g>
		<g>
			<path class="st5" d="M386.86,239.72c-4.29,0-8.61-2-10.92-5.37l-0.59-0.85l4.33-2.76l0.55,0.8c1.75,2.57,5.87,3.8,9.19,2.73
				c6.98-2.33,23.51-17.61,34.67-32.06c3.84-5,8-10.73,12.41-16.8c2.06-2.84,4.2-5.79,6.44-8.84c-3.49,1.04-9.36,3.41-18.85,7.61
				l-0.93,0.41l-1.97-4.72l0.89-0.4c9.93-4.42,19.98-8.73,24.17-8.73c2.15,0,3.01,1.08,3.33,1.72c0.7,1.4,0.26,3.32-1.21,5.28
				c-5.24,7.32-10.74,14.97-15.75,21.65c12.65-3.68,24.44-9.45,34.92-14.58l0.83-0.4c3.16-1.58,6.43-3.22,9.45-4.63
				c3.35-5.13,8.76-8.55,13.55-8.55c3.34,0,6.31,1.54,7.93,4.02l3.59-3.59l2.07,2.07l1.72,1.08l-0.55,0.85
				c-1.62,2.51-5.84,9.92-5.84,13.98c0,1.25,0.33,2.48,4.28,2.48c5.63,0,19.63-4.44,37.53-11.89l0.76-0.35
				c1.23-0.52,2.56-1.09,3.94-1.68c10.55-4.52,23.68-10.15,29.69-10.15c3.21,0,5.2,1.62,5.2,4.24c0,2.31-1.31,6.11-3.6,10.43
				c-0.16,0.32-0.32,0.63-0.49,0.95c11.87-7.3,16.14-9.38,18.93-9.38c2.13,0,3.2,1,3.72,1.84c0.91,1.47,0.92,3.71,0.08,6.4
				l1.86-1.33c5.84-3.94,11.08-6.19,14.38-6.19c1.88,0,3.4,1.42,3.4,3.16c0,2.53-1.99,5.53-4.03,8.38
				c-0.93,1.32-2.81,4.02-2.96,4.86c0.23,0.08,0.81,0.16,2.14,0.16c8.25,0,24.11-3.05,41.68-11.66l0.92-0.45l2.16,4.71l-0.89,0.42
				c-18.6,8.93-35.26,12.1-43.87,12.1c-3.63,0-5.84-0.85-6.75-2.59c-1.16-2.22-0.11-5.45,3.41-10.5c0.79-1.11,1.42-2.04,1.89-2.8
				c-2.34,0.84-5.46,2.51-8.67,4.68l-13.08,9.23l-1.34-2.11l-1.71-1.71l0.71-0.71c3.27-3.27,5.95-8.78,6.32-10.69
				c-2.78,0.65-10.18,5.09-25.48,14.64l-0.84,0.52l-1.34-2.11l-1.49-1.86l0.75-0.75c0.92-0.92,3.82-5.35,5.93-9.58
				c1.63-3.06,2.66-5.71,3-7.19c-4.98,0.04-18.03,5.63-27.56,9.72l-2.11,0.9l0,0.01l-0.9,0.42c-9.31,3.92-31.97,13.04-41.31,13.04
				c-5.89,0-9.4-2.84-9.4-7.6c0-1.34,0.27-2.79,0.65-4.16c-5.25,4.56-11.47,9-15.85,9c-2.8,0-4.84-2.79-4.84-6.64
				c0-0.36,0.02-0.74,0.06-1.12c-1.44,0.69-3,1.44-4.61,2.25c-11.32,5.66-26.8,13.4-43.08,17.16
				c-10.64,13.62-27.75,30.02-36.49,32.93C389.67,239.51,388.27,239.72,386.86,239.72z M378.22,234.04
				c2.79,3.19,7.9,4.56,12.13,3.12c8.35-2.78,25.55-19.38,35.77-32.55l0.22-0.28l0.35-0.08c16.17-3.67,31.66-11.42,42.97-17.08
				c2.32-1.16,4.53-2.22,6.42-3.11l1.95-0.93l-0.55,2.08c-0.24,0.92-0.37,1.79-0.37,2.61c0,2.25,1,4.64,2.84,4.64
				c3.53,0,9.88-4.06,17.44-11.13l3.48-3.26l-1.88,4.38c-1.2,2.81-1.84,5.29-1.84,7.17c0,4.87,4.64,5.6,7.4,5.6
				c8.72,0,30.1-8.51,39.73-12.55l0.78-0.37l3.01-1.29c10.27-4.4,23.04-9.88,28.4-9.88c0.7,0,1.23,0.08,1.53,0.23l0.55,0.28v0.62
				c0,1.99-1.81,6.09-3.36,8.99c-1.69,3.38-4.35,7.72-5.81,9.53l0.49,0.62l0.31,0.48c19.1-11.91,23.82-14.51,26.33-14.51
				c0.57,0,1.05,0.32,1.27,0.86c0.85,2.04-2.77,8.85-6.12,12.6l0.53,0.56l0.28,0.44l11.38-8.04c4.61-3.11,8.94-5.19,11.59-5.57
				l1.67-0.24l-0.59,1.58c-0.42,1.13-1.39,2.72-3.12,5.15c-3.62,5.19-3.78,7.45-3.27,8.42c0.66,1.26,3.07,1.52,4.98,1.52
				c8.27,0,24.18-3.02,42.12-11.48l-0.48-1.05c-17.51,8.41-33.32,11.41-41.63,11.41c-1.88,0-3.37-0.09-3.95-1.2
				c-0.68-1.31,0.32-2.95,3.13-6.97c1.37-1.92,3.66-5.12,3.66-7.23c0-0.64-0.63-1.16-1.4-1.16c-2.88,0-7.83,2.18-13.24,5.83
				l-7.94,5.7l1.81-3.62c1.69-3.38,2.21-6.35,1.35-7.74c-0.37-0.6-1.03-0.89-2.02-0.89c-2.53,0-7.48,2.6-21.19,11.13l-3.42,2.13
				l2.03-3.48c0.83-1.42,1.67-2.86,2.37-4.26c2.12-4,3.38-7.55,3.38-9.51c0-1.85-1.74-2.24-3.2-2.24c-5.6,0-19.06,5.78-28.9,9.99
				c-1.05,0.45-2.07,0.89-3.04,1.3l0,0l-0.9,0.41c-18.78,7.86-33.03,12.37-39.08,12.37c-1.55,0-6.28,0-6.28-4.48
				c0-4.57,4.11-11.73,5.62-14.2l-0.29-0.21l-0.73-0.73l-4.19,4.19l-0.57-1.38c-1.03-2.47-3.68-4.07-6.76-4.07
				c-4.14,0-9.08,3.24-12.02,7.87l-0.16,0.25l-0.27,0.12c-3.07,1.43-6.43,3.1-9.67,4.73l-0.83,0.41
				c-11.35,5.55-24.21,11.85-38.12,15.5l-2.8,0.74l1.75-2.31c5.44-7.17,11.63-15.78,17.5-23.98c1.17-1.56,1.29-2.7,1.03-3.2
				c-0.25-0.51-0.98-0.62-1.54-0.62c-3.67,0-13.4,4.14-22.46,8.16l0.43,1.04c12-5.29,17.95-7.54,20.97-7.93
				c0.08-0.01,0.15-0.02,0.22-0.02l0.09,1.48l0.45,0.33c0.07-0.06,0.13-0.12,0.17-0.19c-0.04,0.06-0.09,0.15-0.18,0.25
				c-2.74,3.72-5.33,7.3-7.82,10.72c-4.41,6.08-8.58,11.83-12.44,16.85c-11.56,14.96-28.21,30.26-35.63,32.74
				c-3.84,1.24-8.4,0.04-10.86-2.74L378.22,234.04z M445.49,175.56l0.03,0.42c0.11-0.02,0.21-0.05,0.3-0.1L445.49,175.56z
				 M479.96,191.35c-1.67,0-1.72-3.49-1.72-3.52c0-6.05,7.23-13.48,13.12-13.48c3.12,0,5.71,2.02,6.15,4.8l0.08,0.52l-0.39,0.36
				C489.05,187.65,483.41,191.35,479.96,191.35z M491.36,176.35c-4.78,0-11.12,6.54-11.12,11.48c0,0.6,0.12,1.14,0.23,1.48
				c1.9-0.28,6.11-2.16,14.94-10.34C494.91,177.42,493.29,176.35,491.36,176.35z"/>
		</g>
	</g>
</g>
<g>
	<g>
		<polygon class="st7" points="609.65,126.41 609.65,116.85 600.09,116.85 600.09,112.29 609.65,112.29 609.65,102.73 
			614.21,102.73 614.21,112.29 623.77,112.29 623.77,116.85 614.21,116.85 614.21,126.41 		"/>
	</g>
	<g>
		<path class="st0" d="M613.71,103.23v9.56h9.56v3.56h-9.56v9.56h-3.56v-9.56h-9.56v-3.56h9.56v-9.56H613.71 M614.71,102.23h-1
			h-3.56h-1v1v8.56h-8.56h-1v1v3.56v1h1h8.56v8.56v1h1h3.56h1v-1v-8.56h8.56h1v-1v-3.56v-1h-1h-8.56v-8.56V102.23L614.71,102.23z"/>
	</g>
</g>
<g>
	<g>
		<polygon class="st7" points="105.24,102.16 105.24,85.64 88.72,85.64 88.72,78.49 105.24,78.49 105.24,61.97 112.4,61.97 
			112.4,78.49 128.92,78.49 128.92,85.64 112.4,85.64 112.4,102.16 		"/>
	</g>
	<g>
		<path class="st0" d="M111.9,62.47v16.52h16.52v6.15H111.9v16.52h-6.15V85.14H89.22v-6.15h16.52V62.47H111.9 M112.9,61.47h-1h-6.15
			h-1v1v15.52H89.22h-1v1v6.15v1h1h15.52v15.52v1h1h6.15h1v-1V86.14h15.52h1v-1v-6.15v-1h-1H112.9V62.47V61.47L112.9,61.47z"/>
	</g>
</g>
<g>
	<g>
		<polygon class="st7" points="571.76,107.09 571.76,92.42 557.09,92.42 557.09,65.64 571.76,65.64 571.76,50.98 598.54,50.98 
			598.54,65.64 613.21,65.64 613.21,92.42 598.54,92.42 598.54,107.09 		"/>
	</g>
	<g>
		<path class="st0" d="M598.04,51.48v14.67h14.67v25.78h-14.67v14.67h-25.78V91.92h-14.67V66.14h14.67V51.48H598.04 M599.04,50.48
			h-1h-25.78h-1v1v13.67h-13.67h-1v1v25.78v1h1h13.67v13.67v1h1h25.78h1v-1V92.92h13.67h1v-1V66.14v-1h-1h-13.67V51.48V50.48
			L599.04,50.48z"/>
	</g>
</g>
<g>
	<g>
		<polygon class="st7" points="107.89,305.09 107.89,295.21 98.01,295.21 98.01,276.85 107.89,276.85 107.89,266.98 126.25,266.98 
			126.25,276.85 136.13,276.85 136.13,295.21 126.25,295.21 126.25,305.09 		"/>
	</g>
	<g>
		<path class="st0" d="M125.75,267.48v9.88h9.88v17.36h-9.88v9.88h-17.36v-9.88h-9.88v-17.36h9.88v-9.88H125.75 M126.75,266.48h-1
			h-17.36h-1v1v8.88h-8.88h-1v1v17.36v1h1h8.88v8.88v1h1h17.36h1v-1v-8.88h8.88h1v-1v-17.36v-1h-1h-8.88v-8.88V266.48L126.75,266.48
			z"/>
	</g>
</g>
<g>
	<g>
		<polygon class="st7" points="121.51,120.71 121.51,115.77 116.57,115.77 116.57,106.09 121.51,106.09 121.51,101.15 
			131.19,101.15 131.19,106.09 136.13,106.09 136.13,115.77 131.19,115.77 131.19,120.71 		"/>
	</g>
	<g>
		<path class="st0" d="M130.69,101.65v4.94h4.94v8.68h-4.94v4.94h-8.68v-4.94h-4.94v-8.68h4.94v-4.94H130.69 M131.69,100.65h-1
			h-8.68h-1v1v3.94h-3.94h-1v1v8.68v1h1h3.94v3.94v1h1h8.68h1v-1v-3.94h3.94h1v-1v-8.68v-1h-1h-3.94v-3.94V100.65L131.69,100.65z"/>
	</g>
</g>
</svg>
