<?xml version="1.0" encoding="utf-8"?>
<!-- Generator: Adobe Illustrator 28.0.0, SVG Export Plug-In . SVG Version: 6.00 Build 0)  -->
<svg version="1.1" id="Capa_1" xmlns="http://www.w3.org/2000/svg" xmlns:xlink="http://www.w3.org/1999/xlink" x="0px" y="0px"
	 viewBox="0 0 75.6 85.3" style="enable-background:new 0 0 75.6 85.3;" xml:space="preserve">
<style type="text/css">
	.st0{fill:#DEF8A5;stroke:#333333;stroke-miterlimit:10;}
	.st1{fill:#008989;}
	.st2{fill:#333333;}
	.st3{fill:#C3F25C;}
	.st4{fill:none;stroke:#C3F25C;stroke-width:2;stroke-miterlimit:10;}
	.st5{fill:#6A66F2;}
	.st6{fill:#E9FFAE;}
	.st7{fill:#F2E96B;}
	.st8{fill:none;stroke:#F2E96B;stroke-width:2;stroke-miterlimit:10;}
	.st9{fill:#FFFFFF;}
	.st10{fill:#6A66F2;stroke:#333333;stroke-width:1.5;stroke-miterlimit:10;}
	.st11{fill:#FFFFFF;stroke:#333333;stroke-width:2;stroke-miterlimit:10;}
	.st12{fill:#D3F46C;}
	.st13{fill:#FFFFFF;stroke:#6A66F2;stroke-linecap:round;stroke-linejoin:round;}
	.st14{fill:#6A66F2;stroke:#6A66F2;stroke-linecap:round;stroke-linejoin:round;}
	.st15{fill:none;stroke:#6A66F2;stroke-linecap:round;stroke-linejoin:round;}
	.st16{fill:#C3F25C;stroke:#6A66F2;stroke-linecap:round;stroke-linejoin:round;}
	.st17{fill:none;}
	.st18{fill:#F8F3AD;stroke:#333333;stroke-miterlimit:10;}
	.st19{fill:#F2E96B;stroke:#333333;stroke-miterlimit:10;}
	.st20{fill:#DEF8A5;}
	.st21{fill:#F8F3AD;}
</style>
<g>
	<polygon class="st5" points="73.5,67.6 64.9,67.6 64.9,59 64.9,58 63.9,58 60.3,58 59.3,58 59.3,59 59.3,67.6 50.8,67.6 49.8,67.6 
		49.8,68.6 49.8,72.1 49.8,73.1 50.8,73.1 59.3,73.1 59.3,81.7 59.3,82.7 60.3,82.7 63.9,82.7 64.9,82.7 64.9,81.7 64.9,73.1 
		73.5,73.1 74.5,73.1 74.5,72.1 74.5,68.6 74.5,67.6 	"/>
	<path class="st2" d="M65.7,83.4h-7.1v-9.6H49v-7.1h9.6v-9.6h7.1v9.6h9.6v7.1h-9.6V83.4z M60.1,81.9h4.1v-9.6h9.6v-4.1h-9.6v-9.6
		h-4.1v9.6h-9.6v4.1h9.6V81.9z"/>
</g>
<g>
	<g>
		<polygon class="st2" points="23.1,64 23.1,49.3 8.4,49.3 8.4,22.5 23.1,22.5 23.1,7.9 49.9,7.9 49.9,22.5 64.5,22.5 64.5,49.3 
			49.9,49.3 49.9,64 		"/>
	</g>
	<g>
		<path class="st2" d="M49.4,8.4V23H64v25.8H49.4v14.7H23.6V48.8H8.9V23h14.7V8.4H49.4 M50.4,7.4h-1H23.6h-1v1V22H8.9h-1v1v25.8v1h1
			h13.7v13.7v1h1h25.8h1v-1V49.8H64h1v-1V23v-1h-1H50.4V8.4V7.4L50.4,7.4z"/>
	</g>
</g>
<g>
	<polygon class="st9" points="59.5,17.5 45.8,17.5 45.8,3.9 45.8,2.9 44.8,2.9 19.1,2.9 18.1,2.9 18.1,3.9 18.1,17.5 4.4,17.5 
		3.4,17.5 3.4,18.5 3.4,44.3 3.4,45.3 4.4,45.3 18.1,45.3 18.1,59 18.1,60 19.1,60 44.8,60 45.8,60 45.8,59 45.8,45.3 59.5,45.3 
		60.5,45.3 60.5,44.3 60.5,18.5 60.5,17.5 	"/>
	<path class="st2" d="M46.8,61H17.1V46.3H2.4V16.5h14.7V1.9h29.8v14.7h14.7v29.8H46.8V61z M19.1,59h25.8V44.3h14.7V18.5H44.8V3.9
		H19.1v14.7H4.4v25.8h14.7V59z"/>
</g>
</svg>
