<?xml version="1.0" encoding="utf-8"?>
<!-- Generator: Adobe Illustrator 28.0.0, SVG Export Plug-In . SVG Version: 6.00 Build 0)  -->
<svg version="1.1" id="Capa_1" xmlns="http://www.w3.org/2000/svg" xmlns:xlink="http://www.w3.org/1999/xlink" x="0px" y="0px"
	 viewBox="0 0 50.7 53.3" style="enable-background:new 0 0 50.7 53.3;" xml:space="preserve">
<style type="text/css">
	.st0{fill:#DEF8A5;stroke:#333333;stroke-miterlimit:10;}
	.st1{fill:#008989;}
	.st2{fill:#333333;}
	.st3{fill:#C3F25C;}
	.st4{fill:none;stroke:#C3F25C;stroke-width:2;stroke-miterlimit:10;}
	.st5{fill:#6A66F2;}
	.st6{fill:#E9FFAE;}
	.st7{fill:#F2E96B;}
	.st8{fill:none;stroke:#F2E96B;stroke-width:2;stroke-miterlimit:10;}
	.st9{fill:#FFFFFF;}
	.st10{fill:#6A66F2;stroke:#333333;stroke-width:1.5;stroke-miterlimit:10;}
	.st11{fill:#FFFFFF;stroke:#333333;stroke-width:2;stroke-miterlimit:10;}
	.st12{fill:#D3F46C;}
	.st13{fill:#FFFFFF;stroke:#6A66F2;stroke-linecap:round;stroke-linejoin:round;}
	.st14{fill:#6A66F2;stroke:#6A66F2;stroke-linecap:round;stroke-linejoin:round;}
	.st15{fill:none;stroke:#6A66F2;stroke-linecap:round;stroke-linejoin:round;}
	.st16{fill:#C3F25C;stroke:#6A66F2;stroke-linecap:round;stroke-linejoin:round;}
	.st17{fill:none;}
	.st18{fill:#F8F3AD;stroke:#333333;stroke-miterlimit:10;}
	.st19{fill:#F2E96B;stroke:#333333;stroke-miterlimit:10;}
	.st20{fill:#DEF8A5;}
	.st21{fill:#F8F3AD;}
</style>
<line class="st18" x1="41.9" y1="27.5" x2="48.2" y2="33.9"/>
<g>
	<polygon class="st20" points="26.3,4.7 31.7,10.1 31.7,21.3 42.8,21.3 48.2,26.7 48.2,33.8 31.7,33.8 31.7,50.3 24.5,50.3 
		19.1,44.9 19.1,33.8 8,33.8 2.6,28.4 2.6,21.3 19.1,21.3 19.1,4.7 	"/>
	<path class="st2" d="M32.2,50.8h-7.9l-5.7-5.7V34.3H7.8l-5.7-5.7v-7.9h16.5V4.2h7.9l5.7,5.7v10.8H43l5.7,5.7v7.9H32.2V50.8z
		 M24.7,49.8h6.4V33.3h16.5v-6.4l-5.1-5.1H31.2V10.3l-5.1-5.1h-6.4v16.5H3.1v6.4l5.1,5.1h11.4v11.4L24.7,49.8z"/>
</g>
<g>
	<line class="st21" x1="25.3" y1="44" x2="31.7" y2="50.3"/>
	<rect x="28" y="42.7" transform="matrix(0.7071 -0.7071 0.7071 0.7071 -25.0081 33.9647)" class="st2" width="1" height="8.9"/>
</g>
<g>
	<line class="st21" x1="41.9" y1="27.5" x2="48.2" y2="33.9"/>
	<rect x="44.5" y="26.2" transform="matrix(0.7071 -0.7071 0.7071 0.7071 -8.5228 40.8229)" class="st2" width="1" height="8.9"/>
</g>
<g>
	<g>
		<polygon class="st7" points="19.1,44.9 19.1,28.4 2.6,28.4 2.6,21.3 19.1,21.3 19.1,4.7 26.3,4.7 26.3,21.3 42.8,21.3 42.8,28.4 
			26.3,28.4 26.3,44.9 		"/>
		<path class="st2" d="M26.8,45.4h-8.2V28.9H2.1v-8.2h16.5V4.2h8.2v16.5h16.5v8.2H26.8V45.4z M19.6,44.4h6.2V27.9h16.5v-6.2H25.8
			V5.2h-6.2v16.5H3.1v6.2h16.5V44.4z"/>
	</g>
</g>
</svg>
